<?xml version="1.0" standalone="no"?>
<!DOCTYPE svg PUBLIC "-//W3C//DTD SVG 20010904//EN"
 "http://www.w3.org/TR/2001/REC-SVG-20010904/DTD/svg10.dtd">
<svg version="1.0" xmlns="http://www.w3.org/2000/svg"
 width="400.000000pt" height="400.000000pt" viewBox="0 0 400.000000 400.000000"
 preserveAspectRatio="xMidYMid meet">
<metadata>
Created by potrace 1.14, written by Peter Selinger 2001-2017
</metadata>
<g transform="translate(0.000000,400.000000) scale(0.100000,-0.100000)"
fill="#000000" stroke="none">
<path d="M0 3936 c0 -48 7 -84 29 -138 15 -40 38 -107 50 -148 13 -41 38 -120
56 -175 19 -54 31 -102 26 -105 -17 -12 -20 -43 -5 -71 8 -17 13 -38 11 -47
-3 -12 -5 -11 -6 5 -1 24 -20 42 -22 21 0 -7 -5 1 -10 17 -5 17 -7 36 -4 43 3
7 1 20 -4 30 -5 9 -18 44 -29 77 -12 33 -37 101 -56 150 l-35 90 -1 -95 c0
-95 9 -133 79 -312 7 -18 7 -28 1 -28 -6 0 -10 6 -10 13 0 7 -7 22 -16 33 -14
18 -15 18 -8 -6 3 -14 18 -38 33 -55 32 -35 66 -109 57 -123 -3 -5 1 -15 9
-22 8 -7 15 -19 15 -26 0 -16 64 -203 79 -231 10 -21 4 -63 -9 -63 -10 0 -72
164 -88 230 -6 25 -18 63 -28 85 -14 35 -18 37 -24 20 -7 -19 -7 -19 -15 5 -5
15 -4 25 4 28 19 6 12 22 -11 23 -13 0 -17 3 -10 6 14 6 16 39 2 48 -5 3 -10
15 -10 26 0 10 -4 19 -10 19 -5 0 -10 10 -11 23 0 12 -7 38 -14 57 -13 33 -14
30 -14 -65 -1 -78 4 -112 19 -154 12 -29 18 -61 15 -71 -3 -11 0 -20 10 -23 8
-4 12 -13 9 -20 -3 -8 2 -17 11 -21 9 -3 13 -11 10 -16 -4 -6 -2 -16 3 -23 24
-29 83 -201 77 -224 -3 -14 -2 -22 3 -19 5 3 15 -14 22 -38 10 -38 9 -54 -15
-147 -15 -57 -29 -106 -31 -108 -2 -2 -3 15 -2 39 1 31 -3 46 -17 56 -10 8
-16 16 -13 20 7 6 -49 166 -61 174 -4 3 -11 23 -14 44 -3 22 -11 44 -17 50
-20 19 -9 -232 12 -274 33 -68 47 -110 39 -115 -5 -2 -19 23 -32 58 -22 57
-24 60 -27 31 -2 -18 8 -58 21 -90 13 -33 32 -82 41 -110 l17 -51 -38 -104
c-33 -92 -37 -117 -41 -218 -3 -111 -2 -117 34 -215 21 -56 41 -106 46 -112 5
-6 6 -19 2 -28 -3 -9 -1 -16 5 -16 6 0 11 -9 11 -20 0 -11 5 -20 10 -20 6 0 9
-3 9 -7 -3 -16 14 -73 21 -73 10 0 28 -71 22 -89 -4 -12 -48 95 -59 147 -3 13
-11 21 -18 18 -7 -2 -18 8 -25 22 -19 39 -20 51 -4 45 19 -7 18 -2 -11 48 -24
43 -37 31 -14 -14 9 -17 9 -20 -1 -10 -7 6 -16 26 -20 45 -7 27 -8 28 -9 8 0
-27 23 -97 57 -171 30 -65 102 -271 98 -278 -3 -4 4 -24 14 -46 10 -21 16 -44
13 -51 -2 -7 1 -15 6 -19 6 -3 9 -11 5 -16 -11 -19 -24 3 -24 41 0 21 -4 41
-9 44 -13 9 -21 -5 -12 -23 12 -22 34 -112 34 -136 1 -27 -22 -233 -29 -270
-6 -26 -10 -20 -45 65 -21 52 -38 103 -38 113 -1 10 -5 16 -10 12 -6 -3 -4
-22 5 -47 7 -22 14 -49 14 -60 0 -10 9 -32 21 -47 12 -16 22 -43 24 -60 1 -17
5 -34 9 -38 3 -3 6 -15 6 -25 0 -33 -18 -19 -36 29 -10 27 -22 54 -27 61 -6 7
-12 25 -13 39 -2 15 -13 40 -25 56 -11 16 -22 42 -23 58 -1 16 -5 32 -9 35
-10 11 -9 -70 2 -82 16 -18 42 -109 31 -112 -12 -4 5 -39 30 -62 29 -25 52
-99 45 -142 -4 -21 -11 -38 -15 -38 -5 0 -23 37 -40 83 -64 170 -59 166 -59
35 -1 -106 2 -124 30 -200 26 -70 29 -91 24 -135 -4 -29 -10 -53 -15 -53 -5 0
-7 6 -4 13 3 8 -2 20 -11 27 -17 15 -20 37 -4 42 8 3 6 19 -4 53 l-16 50 0
-82 c-1 -46 5 -94 11 -109 10 -22 10 -28 0 -32 -8 -2 -12 -30 -12 -88 0 -70 3
-84 16 -84 9 0 18 10 22 22 5 21 5 21 14 -2 7 -18 11 -21 17 -11 6 9 11 10 15
2 4 -6 21 -11 37 -11 29 0 30 2 24 30 -4 17 -2 30 3 30 5 0 12 -13 15 -30 6
-28 10 -30 48 -30 47 0 46 -3 10 90 -20 51 -15 51 16 3 6 -10 3 7 -8 37 -11
30 -28 62 -38 70 -25 20 -36 126 -16 146 19 19 25 18 25 -5 0 -11 5 -23 11
-27 13 -8 11 3 -15 88 -9 27 -11 50 -6 53 5 3 7 12 3 20 -3 8 -3 15 0 15 2 0
24 -50 47 -110 38 -96 60 -133 60 -100 0 6 -4 10 -10 10 -5 0 -10 9 -10 20 0
10 -6 34 -14 52 -8 18 -26 62 -40 98 l-26 65 18 60 c10 33 24 88 32 123 7 34
16 62 21 62 5 0 6 -7 3 -15 -4 -8 -2 -15 4 -15 5 0 20 -28 32 -62 22 -58 23
-77 21 -248 -1 -101 -4 -186 -6 -188 -3 -3 -11 1 -19 8 -13 10 -13 7 0 -20 17
-33 31 -171 15 -155 -4 6 -21 44 -36 85 -28 74 -45 105 -45 83 0 -6 13 -44 29
-85 16 -40 35 -92 43 -115 l13 -43 52 0 53 0 1 73 c1 54 3 65 9 42 4 -16 8
-49 9 -72 l1 -43 226 0 226 0 -4 60 c-2 33 0 60 4 60 4 0 8 -5 8 -12 0 -6 10
-33 22 -60 20 -46 24 -48 61 -48 27 0 38 4 35 13 -3 6 -13 36 -23 65 -12 37
-21 52 -31 48 -13 -5 -20 22 -15 60 1 7 -8 14 -19 17 -21 5 -27 31 -10 42 6 4
4 15 -8 29 -15 19 -18 45 -20 147 -2 87 0 119 8 109 5 -8 10 -25 10 -36 0 -43
51 -216 79 -273 16 -31 57 -86 90 -122 33 -35 61 -72 61 -81 0 -13 8 -18 27
-18 26 0 23 5 -47 77 -41 43 -80 81 -86 85 -19 13 -62 120 -89 223 -16 64 -33
173 -45 305 -28 296 -43 367 -114 554 -25 63 -27 104 -5 63 6 -9 15 -15 20
-11 5 3 16 -11 24 -30 9 -20 45 -67 81 -104 l65 -67 -37 60 c-45 72 -95 167
-90 172 5 5 128 -36 143 -48 7 -6 13 -21 13 -33 0 -38 66 -210 97 -256 22 -32
28 -47 20 -53 -7 -4 45 -6 115 -5 91 2 131 7 140 17 11 11 9 12 -8 7 -19 -6
-22 -1 -32 63 -7 38 -15 76 -18 85 -10 26 11 18 65 -24 71 -56 75 -50 11 15
-55 56 -60 68 -15 39 28 -18 34 -8 8 12 -15 11 -15 13 -3 14 47 1 -306 173
-453 221 l-128 42 6 126 c9 184 6 178 61 128 41 -38 83 -69 193 -144 22 -15
48 -23 77 -23 36 0 46 5 63 29 30 42 26 59 -7 28 -18 -17 -39 -27 -58 -27 -55
1 -219 96 -288 169 l-29 30 7 133 c18 347 94 736 223 1144 62 196 79 241 90
233 7 -6 13 -15 13 -19 0 -11 152 -249 207 -325 24 -33 74 -105 110 -160 70
-106 147 -209 188 -253 43 -47 155 -183 173 -211 9 -14 86 -99 172 -189 85
-90 156 -171 158 -181 2 -11 -10 -31 -29 -47 -17 -16 -78 -75 -135 -130 -82
-80 -112 -103 -141 -109 -46 -8 -26 -25 31 -25 36 0 46 8 177 139 128 129 140
138 150 120 6 -12 13 -19 16 -16 2 3 -2 14 -9 26 -12 19 -8 26 44 77 l56 57
58 -47 c33 -25 77 -61 98 -78 48 -39 187 -130 192 -126 1 2 -21 32 -51 67 -86
102 -195 261 -195 285 0 8 4 18 10 21 5 3 44 48 86 100 41 52 78 95 81 95 8 0
63 -42 124 -94 26 -23 75 -63 109 -91 34 -27 85 -70 113 -95 103 -90 100 -83
-13 31 -156 155 -274 287 -278 309 -5 30 23 29 59 -2 19 -17 53 -43 76 -59 23
-16 43 -33 45 -37 3 -9 127 -98 162 -118 22 -12 22 -13 71 -199 l33 -130 -21
-11 c-12 -7 -58 -24 -102 -39 -207 -71 -540 -201 -625 -245 -30 -15 -77 -38
-105 -50 -27 -12 -67 -35 -87 -51 -21 -16 -77 -50 -125 -75 -48 -25 -79 -42
-68 -38 65 22 138 26 109 6 -5 -4 -23 -24 -38 -44 -29 -39 -26 -50 6 -21 20
18 25 4 6 -15 -6 -6 -10 -14 -7 -16 4 -4 68 56 124 117 22 23 35 21 35 -6 0
-70 49 -168 130 -260 l40 -45 -32 -11 c-18 -5 -44 -12 -58 -14 -19 -3 -16 -5
10 -5 32 -2 140 19 247 47 24 6 84 29 135 52 51 22 101 43 111 46 11 3 16 12
12 20 -3 8 2 51 11 96 14 66 14 92 5 148 -11 70 -42 153 -67 180 -13 15 -6 19
78 49 51 18 117 35 146 38 l52 4 0 -78 c0 -44 -7 -119 -15 -169 -14 -88 -14
-119 1 -73 4 13 26 64 49 113 23 50 48 108 56 130 21 64 26 61 38 -17 7 -40
18 -104 26 -143 62 -304 88 -598 89 -1002 l1 -312 -70 -71 c-43 -44 -63 -70
-53 -70 9 0 26 14 38 30 12 17 26 27 32 24 6 -4 8 -3 5 3 -4 6 5 21 19 34 l26
24 -6 -58 -7 -57 44 0 45 0 7 82 c4 46 10 146 14 223 l6 140 18 -145 c15 -124
23 -206 26 -282 1 -16 15 -18 150 -18 l149 0 6 32 c3 18 11 86 16 153 6 66 12
134 15 150 2 17 5 135 7 264 3 283 4 285 108 313 82 22 83 22 75 -2 -8 -24 -2
-25 30 -4 17 11 25 26 25 44 l0 28 -35 -18 c-19 -10 -67 -26 -106 -35 -55 -14
-73 -23 -81 -41 -20 -43 -26 -26 -27 74 -2 115 -26 465 -41 572 -13 106 -13
105 21 145 41 46 51 44 34 -5 -8 -22 -11 -40 -7 -40 4 0 25 53 46 118 62 194
103 269 162 297 l34 16 0 969 0 970 -1585 0 c-1340 0 -1585 -2 -1585 -14 0 -7
-6 -19 -14 -25 -11 -9 -15 -6 -20 14 -4 14 -13 25 -22 25 -11 0 -12 -4 -4 -19
20 -38 11 -66 -33 -109 -24 -23 -46 -39 -50 -36 -4 4 -7 23 -7 42 0 26 -3 33
-15 28 -11 -4 -15 2 -16 22 -1 15 -2 36 -3 47 -1 17 -9 20 -63 23 l-63 3 10
-26 c14 -36 12 -42 -5 -19 -8 10 -15 14 -15 7 0 -6 7 -18 15 -27 8 -8 12 -22
9 -30 -3 -9 -1 -16 5 -16 16 0 14 -28 -2 -32 -11 -2 -11 -8 0 -33 13 -28 14
-28 10 -4 -3 19 1 25 15 26 15 1 17 -3 13 -18 -4 -13 -2 -19 7 -17 7 2 12 -4
10 -14 -1 -9 2 -19 8 -23 16 -10 12 -47 -10 -80 -19 -29 -20 -29 -20 -7 0 13
-9 35 -20 49 -11 14 -20 33 -20 42 0 9 -7 27 -16 40 -12 17 -15 36 -11 69 4
31 3 40 -3 27 -8 -18 -10 -15 -14 17 0 7 -10 15 -21 18 -11 3 -20 11 -21 18
-1 6 -2 17 -2 22 -3 15 -72 12 -78 -3 -3 -8 0 -26 5 -40 6 -15 7 -27 2 -27
-12 0 -21 25 -21 56 0 21 -5 24 -34 24 -24 0 -36 -5 -39 -17 -4 -17 -5 -17 -6
0 -1 10 -9 17 -21 17 -19 0 -19 -1 4 -63 13 -34 38 -89 55 -121 17 -33 34 -77
37 -98 4 -21 10 -38 14 -38 3 0 19 -39 35 -87 16 -49 37 -103 47 -121 11 -20
16 -42 12 -54 -5 -16 -8 -17 -14 -7 -5 7 -6 17 -3 22 3 5 -1 13 -8 18 -8 5
-17 3 -21 -4 -4 -7 -8 2 -8 21 0 19 -8 39 -19 49 -11 9 -18 20 -15 25 7 12
-39 145 -69 199 -13 24 -22 49 -20 56 5 14 -20 65 -42 83 -22 18 -32 4 -12
-17 8 -10 32 -63 52 -118 20 -55 50 -136 66 -180 70 -188 79 -220 73 -247 -3
-15 -10 -31 -15 -34 -15 -9 -38 27 -39 59 0 15 -6 27 -13 27 -7 0 -21 14 -30
30 -10 17 -13 30 -8 30 6 0 11 -5 11 -12 0 -6 3 -9 6 -5 9 9 -16 81 -34 95 -9
6 -17 25 -18 40 -2 28 -11 57 -63 201 -17 46 -31 86 -31 88 0 1 -6 3 -13 3 -8
0 -14 12 -14 29 0 17 -6 38 -14 47 -8 9 -14 31 -14 48 l0 31 -62 3 -63 3 0
-65z m394 18 c3 -8 2 -12 -4 -9 -6 3 -10 10 -10 16 0 14 7 11 14 -7z m-55
-134 c29 -74 55 -144 60 -155 7 -18 9 -18 24 10 9 17 16 25 17 18 0 -6 3 -19
6 -27 5 -12 2 -15 -10 -10 -12 5 -15 2 -10 -9 4 -12 1 -14 -15 -10 -14 4 -25
20 -35 52 -8 25 -32 92 -55 148 -36 88 -50 136 -37 122 2 -2 27 -65 55 -139z
m101 13 c15 -33 60 -163 60 -174 0 -5 -6 -6 -12 -4 -7 3 -13 19 -14 35 -1 17
-9 38 -18 48 -9 10 -14 21 -10 24 10 11 -25 78 -41 78 -9 0 -13 5 -10 10 11
18 32 10 45 -17z m-21 -82 c6 -19 9 -36 7 -38 -2 -2 -11 17 -20 44 -9 26 -12
43 -7 38 4 -6 13 -25 20 -44z m135 -37 c11 -30 6 -37 -13 -18 -10 10 -17 22
-14 27 7 12 21 8 27 -9z m-34 -129 c0 -17 -2 -17 -10 -5 -5 8 -10 24 -10 35 0
17 2 17 10 5 5 -8 10 -24 10 -35z m-73 -25 c-3 -16 1 -37 9 -47 7 -10 13 -27
13 -38 0 -14 -7 -7 -20 20 -11 25 -17 51 -13 68 4 21 2 27 -11 27 -13 0 -14 2
-3 14 11 12 14 12 21 0 5 -8 6 -27 4 -44z m42 -1 c17 -57 7 -60 -12 -5 -9 26
-12 46 -8 46 4 0 13 -18 20 -41z m306 -91 c-4 -18 -14 -44 -22 -58 -8 -14 -12
-18 -9 -9 2 10 10 35 17 58 15 49 23 54 14 9z m865 -23 c0 -5 -5 -3 -10 5 -5
8 -10 20 -10 25 0 6 5 3 10 -5 5 -8 10 -19 10 -25z m717 -77 c74 -110 93 -140
76 -123 -6 6 -39 53 -74 105 -79 116 -81 120 -75 120 2 0 35 -46 73 -102z
m821 57 c-3 -3 -9 2 -12 12 -6 14 -5 15 5 6 7 -7 10 -15 7 -18z m46 -115 c3
-14 -3 -7 -13 15 -11 22 -20 45 -20 50 0 15 26 -37 33 -65z m-2537 8 c-3 -8
-6 -5 -6 6 -1 11 2 17 5 13 3 -3 4 -12 1 -19z m40 0 c-3 -8 -6 -5 -6 6 -1 11
2 17 5 13 3 -3 4 -12 1 -19z m-550 -130 c8 -9 21 -14 29 -11 10 4 14 -4 14
-31 0 -25 4 -36 15 -36 8 0 15 -4 15 -10 0 -5 -4 -10 -10 -10 -5 0 -10 -7 -10
-16 0 -10 6 -14 14 -11 20 8 39 -52 31 -97 -4 -19 -14 -37 -22 -41 -22 -8 -31
4 -13 16 13 8 13 11 -2 19 -9 6 -15 17 -12 25 3 8 2 20 -2 27 -5 7 -9 18 -9
23 -1 12 -8 31 -37 100 -11 28 -22 61 -24 75 -2 14 -1 18 2 10 4 -8 13 -23 21
-32z m1748 -174 c94 -108 360 -389 449 -473 32 -31 91 -90 131 -131 l73 -75
-49 -55 c-83 -93 -130 -140 -141 -140 -39 0 -328 471 -477 775 -92 190 -111
243 -68 194 12 -14 49 -57 82 -95z m-1820 6 c8 -16 15 -37 15 -47 -1 -14 -4
-13 -14 7 -17 32 -29 70 -22 70 3 0 12 -13 21 -30z m232 -52 c-3 -8 -6 -5 -6
6 -1 11 2 17 5 13 3 -3 4 -12 1 -19z m1448 -454 c44 -55 404 -415 448 -448 20
-16 37 -32 37 -35 0 -9 -67 -82 -92 -100 -14 -11 -19 -8 -33 19 -15 30 -130
184 -168 225 -34 37 -118 160 -154 225 -20 36 -46 79 -58 95 -11 17 -36 55
-53 85 l-33 55 38 -42 c21 -23 52 -59 68 -79z m839 -83 c13 -14 16 -25 10 -31
-7 -7 -22 2 -44 27 -18 21 -49 56 -69 77 l-36 39 60 -45 c33 -25 69 -55 79
-67z m-2524 48 c0 -5 -4 -9 -10 -9 -5 0 -10 7 -10 16 0 8 5 12 10 9 6 -3 10
-10 10 -16z m115 -9 c-3 -6 1 -13 9 -16 13 -5 16 -27 16 -134 0 -157 -3 -170
-36 -135 -14 15 -22 30 -19 34 2 5 -3 34 -12 65 -15 54 -15 61 2 109 21 60 34
87 41 87 3 0 2 -5 -1 -10z m455 -157 c0 -128 14 -383 25 -463 3 -19 12 -89 20
-155 9 -66 22 -150 29 -187 7 -38 12 -68 11 -68 -17 0 -65 36 -75 57 -36 78
-98 245 -141 381 l-49 152 33 183 34 182 6 -154 c4 -85 7 -179 7 -209 l0 -55
-22 19 -23 19 23 -26 c12 -14 22 -33 22 -42 0 -9 4 -17 10 -17 6 0 7 17 4 43
-6 38 23 255 46 347 4 19 11 56 15 83 12 92 25 47 25 -90z m-601 36 c11 -33
14 -56 6 -48 -12 13 -34 79 -26 79 5 0 14 -14 20 -31z m88 -81 c-3 -8 -6 -5
-6 6 -1 11 2 17 5 13 3 -3 4 -12 1 -19z m-34 -160 c6 -3 14 -34 18 -68 4 -34
14 -69 22 -78 15 -18 12 -46 -4 -36 -17 10 -9 -8 21 -47 l31 -38 -2 -188 c-1
-103 -4 -194 -7 -201 -7 -19 -37 43 -63 130 -13 46 -25 68 -35 68 -11 0 -13 6
-9 19 3 11 1 22 -5 26 -5 3 -8 16 -4 29 3 14 -2 32 -16 49 -12 15 -19 31 -16
36 3 5 -5 35 -19 67 -13 33 -24 55 -25 50 0 -5 -3 -7 -6 -3 -3 3 1 20 10 39 8
18 24 56 35 83 11 28 27 68 37 90 l18 40 4 -30 c2 -16 9 -33 15 -37z m46 -70
c1 -16 5 -28 10 -28 5 0 16 -21 25 -47 19 -56 19 -54 1 -47 -8 4 -15 14 -15
23 0 10 -3 21 -7 25 -5 4 -8 11 -9 14 0 4 -3 14 -7 22 -7 17 -27 118 -26 128
2 17 28 -66 28 -90z m2931 -237 c0 -13 -9 -18 -50 -25 l-35 -7 35 20 c40 23
50 25 50 12z m-2930 -533 c21 -34 26 -68 11 -68 -5 0 -11 8 -14 18 -3 9 -10
32 -15 50 -6 17 -9 32 -6 32 2 0 13 -15 24 -32z m1189 -104 c14 -12 -19 -1
-35 12 -18 14 -18 14 6 3 14 -6 27 -13 29 -15z m-1060 -236 c16 -43 21 -78 13
-78 -9 0 -32 65 -32 89 0 18 10 12 19 -11z m-14 -156 c-10 -10 -25 21 -24 48
1 23 2 22 15 -9 8 -18 12 -36 9 -39z m30 -82 c5 -17 4 -22 -3 -15 -5 6 -13 21
-17 35 -5 17 -4 22 3 15 5 -5 13 -21 17 -35z m-186 -608 c1 -21 -22 -8 -24 14
-3 31 -16 64 -25 64 -5 0 -6 8 -3 17 5 13 12 6 29 -32 13 -28 23 -56 23 -63z
m45 92 c3 -8 2 -12 -4 -9 -6 3 -10 10 -10 16 0 14 7 11 14 -7z m-4 -49 c0 -5
-5 -3 -10 5 -5 8 -10 20 -10 25 0 6 5 3 10 -5 5 -8 10 -19 10 -25z"/>
<path d="M630 1924 c1 -12 70 -90 70 -78 0 5 -16 26 -35 48 -19 21 -35 34 -35
30z"/>
<path d="M603 1835 c0 -33 2 -45 4 -27 2 18 2 45 0 60 -2 15 -4 0 -4 -33z"/>
<path d="M130 2088 c0 -9 5 -20 10 -23 13 -8 13 5 0 25 -8 13 -10 13 -10 -2z"/>
<path d="M186 3978 c4 -13 11 -34 16 -48 10 -24 11 -24 18 -5 9 26 -8 75 -27
75 -10 0 -12 -6 -7 -22z"/>
<path d="M136 3935 c4 -8 8 -15 10 -15 2 0 4 7 4 15 0 8 -4 15 -10 15 -5 0 -7
-7 -4 -15z"/>
<path d="M555 3770 c3 -5 8 -10 11 -10 2 0 4 5 4 10 0 6 -5 10 -11 10 -5 0 -7
-4 -4 -10z"/>
<path d="M0 2161 c0 -60 13 -89 23 -51 7 26 -3 99 -14 106 -5 3 -9 -22 -9 -55z"/>
<path d="M3968 1869 c-43 -91 -92 -251 -93 -300 0 -34 7 -56 28 -85 15 -22 27
-49 27 -60 0 -11 -20 -50 -45 -87 -25 -37 -45 -72 -45 -78 0 -16 87 103 100
135 15 40 13 51 -16 85 -16 20 -28 47 -31 75 -4 39 -1 46 25 65 16 11 41 25
56 31 14 5 26 14 26 20 0 6 -23 -1 -51 -15 -55 -28 -52 -31 -34 33 4 12 25 34
47 48 22 14 37 28 34 31 -3 3 -17 -2 -30 -11 -14 -9 -27 -16 -30 -16 -5 0 13
49 45 118 11 24 18 49 16 55 -1 5 -15 -14 -29 -44z"/>
<path d="M2269 1815 c16 -29 81 -102 80 -90 0 6 -20 33 -46 60 -25 28 -40 41
-34 30z"/>
<path d="M1 1714 c0 -11 3 -14 6 -6 3 7 2 16 -1 19 -3 4 -6 -2 -5 -13z"/>
<path d="M2390 1620 c-19 -11 -30 -19 -25 -19 6 0 26 8 45 19 19 11 31 19 25
19 -5 0 -26 -8 -45 -19z"/>
<path d="M1671 1574 c31 -34 108 -84 128 -84 9 1 3 7 -14 14 -16 7 -51 32 -77
55 -52 46 -74 55 -37 15z"/>
<path d="M1819 1585 c18 -8 41 -15 50 -14 22 1 -39 28 -64 28 -14 0 -9 -4 14
-14z"/>
<path d="M2234 1556 c-116 -58 -104 -59 17 -2 52 25 89 45 83 45 -6 1 -51 -19
-100 -43z"/>
<path d="M0 1541 c0 -22 64 -181 74 -181 4 0 5 8 1 18 -4 9 -7 26 -7 37 1 11
-5 26 -13 35 -8 8 -23 36 -34 60 -11 25 -21 39 -21 31z"/>
<path d="M1267 1513 c23 -4 59 -47 99 -116 13 -23 24 -37 24 -30 0 41 -93 154
-124 152 -20 -2 -20 -2 1 -6z"/>
<path d="M2043 1469 c-18 -12 -33 -23 -33 -25 0 -5 44 18 70 35 29 20 -5 10
-37 -10z"/>
<path d="M1980 1430 c-9 -6 -10 -10 -3 -10 6 0 15 5 18 10 8 12 4 12 -15 0z"/>
<path d="M1111 1356 c13 -12 191 -107 194 -104 5 4 -178 108 -190 108 -5 0 -6
-2 -4 -4z"/>
<path d="M86 1322 c-3 -6 0 -28 9 -49 10 -24 12 -39 5 -41 -15 -5 -12 -22 3
-22 8 0 19 -10 25 -22 20 -42 13 5 -11 77 -13 38 -27 64 -31 57z"/>
<path d="M3945 1226 c-27 -13 -60 -34 -71 -47 -24 -27 -43 -76 -25 -65 6 4 11
13 11 21 0 19 63 71 104 86 20 7 36 17 36 21 0 11 2 11 -55 -16z"/>
<path d="M2840 1195 c-14 -8 -20 -14 -15 -14 6 0 21 6 35 14 14 8 21 14 15 14
-5 0 -21 -6 -35 -14z"/>
<path d="M2 1060 c0 -14 2 -19 5 -12 2 6 2 18 0 25 -3 6 -5 1 -5 -13z"/>
<path d="M966 1031 c-4 -5 3 -7 14 -4 23 6 26 13 6 13 -8 0 -17 -4 -20 -9z"/>
<path d="M2510 1031 c-26 -15 -122 -33 -215 -41 l-90 -7 72 -1 c78 -2 198 19
241 43 15 8 23 14 17 14 -5 0 -17 -3 -25 -8z"/>
<path d="M4 1009 c-3 -6 0 -15 7 -20 23 -14 30 -10 19 11 -12 23 -16 24 -26 9z"/>
<path d="M998 1003 c7 -3 16 -2 19 1 4 3 -2 6 -13 5 -11 0 -14 -3 -6 -6z"/>
<path d="M15 930 c3 -5 8 -10 11 -10 2 0 4 5 4 10 0 6 -5 10 -11 10 -5 0 -7
-4 -4 -10z"/>
<path d="M1370 923 c-19 -9 -66 -22 -105 -29 l-70 -14 65 6 c59 5 150 34 150
48 0 7 3 8 -40 -11z"/>
<path d="M1474 510 c3 -8 9 -23 12 -32 4 -10 10 -18 15 -18 14 0 10 13 -12 40
-11 14 -18 18 -15 10z"/>
<path d="M2181 390 c-1 -37 15 -196 25 -242 5 -23 1 -30 -21 -40 -21 -10 -34
-8 -78 10 -74 31 -97 28 -138 -14 -55 -57 -62 -58 -123 -23 -37 20 -62 28 -76
24 -15 -5 -20 -2 -20 12 -1 10 -10 34 -21 53 -11 19 -17 26 -13 15 4 -11 13
-49 21 -85 21 -88 35 -119 28 -57 -7 57 7 68 55 40 80 -45 79 -44 102 -32 13
7 38 27 56 45 38 39 51 41 111 14 47 -22 96 -26 106 -10 12 20 22 9 39 -46 27
-86 27 -59 0 35 -13 46 -30 140 -38 210 -7 69 -14 110 -15 91z"/>
<path d="M221 214 c0 -11 3 -14 6 -6 3 7 2 16 -1 19 -3 4 -6 -2 -5 -13z"/>
<path d="M265 90 c3 -5 8 -10 11 -10 2 0 4 5 4 10 0 6 -5 10 -11 10 -5 0 -7
-4 -4 -10z"/>
</g>
</svg>
